<svg width="24" height="24" viewBox="0 0 24 24" fill="none" xmlns="http://www.w3.org/2000/svg">
<path d="M6.95 8.05C6.6 8.05 6.35433 7.979 6.213 7.837C6.07167 7.695 6.00067 7.44933 6 7.1C6 6.43333 6.15833 5.81667 6.475 5.25C6.79167 4.68333 7.21667 4.21667 7.75 3.85L12 1L16.25 3.85C16.7833 4.21667 17.2083 4.68333 17.525 5.25C17.8417 5.81667 18 6.43333 18 7.1C18 7.45 17.929 7.696 17.787 7.838C17.645 7.98 17.3993 8.05067 17.05 8.05H6.95ZM1 21V8.725C0.7 8.54167 0.458333 8.30433 0.275 8.013C0.0916667 7.72167 0 7.384 0 7C0 6.616 0.2 6.14933 0.6 5.6C1 5.05067 1.46667 4.51733 2 4C2.53333 4.51667 3 5.05 3.4 5.6C3.8 6.15 4 6.61667 4 7C4 7.38333 3.90833 7.721 3.725 8.013C3.54167 8.305 3.3 8.542 3 8.724V13H5V11C5 10.5833 5.13333 10.1833 5.4 9.8C5.66667 9.41667 6.05 9.16667 6.55 9.05H17.45C17.95 9.16667 18.3333 9.41667 18.6 9.8C18.8667 10.1833 19 10.5833 19 11V13H21V8.725C20.7 8.54167 20.4583 8.30433 20.275 8.013C20.0917 7.72167 20 7.384 20 7C20 6.616 20.2 6.14933 20.6 5.6C21 5.05067 21.4667 4.51733 22 4C22.5333 4.51667 23 5.05 23.4 5.6C23.8 6.15 24 6.61667 24 7C24 7.38333 23.9083 7.721 23.725 8.013C23.5417 8.305 23.3 8.54233 23 8.725V21H14V17C14 16.45 13.8043 15.9793 13.413 15.588C13.0217 15.1967 12.5507 15.0007 12 15C11.4493 14.9993 10.9787 15.1953 10.588 15.588C10.1973 15.9807 10.0013 16.4513 10 17V21H1Z" fill="#14AE5C"/>
</svg>
