<svg width="16" height="16" viewBox="0 0 16 16" fill="none" xmlns="http://www.w3.org/2000/svg">
<path fill-rule="evenodd" clip-rule="evenodd" d="M6.82397 3.33337L7.99991 3.92072L9.17585 3.33337H14.6666V13.3334H9.48991L7.99991 14.0787L6.50928 13.3334H1.33325V3.33337H6.82397ZM6.50925 4.66672H2.6666V12H6.82397L7.33325 12.2544V5.07872L6.50925 4.66672ZM13.3333 4.66672H9.48991L8.66656 5.07856V12.2544L9.17588 12H13.3333V4.66672ZM12.6666 8.66672V9.66672H9.33325V8.66672H12.6666ZM6.6666 8.66672V9.66672H3.33325V8.66672H6.6666ZM12.6666 6.00003V7.00003H9.33325V6.00003H12.6666ZM6.6666 6.00003V7.00003H3.33325V6.00003H6.6666Z" fill="#FFC7C2"/>
</svg>
